<?xml version="1.0" encoding="UTF-8" standalone="no"?>
<!DOCTYPE svg PUBLIC "-//W3C//DTD SVG 1.1//EN"
 "http://www.w3.org/Graphics/SVG/1.1/DTD/svg11.dtd">
<!-- Generated by graphviz version 12.2.0 (20241103.1931)
 -->
<!-- Title: G Pages: 1 -->
<svg width="1594pt" height="212pt"
 viewBox="0.00 0.00 1593.50 212.41" xmlns="http://www.w3.org/2000/svg" xmlns:xlink="http://www.w3.org/1999/xlink">
<g id="graph0" class="graph" transform="scale(1 1) rotate(0) translate(4 208.41)">
<title>G</title>
<polygon fill="white" stroke="none" points="-4,4 -4,-208.41 1589.5,-208.41 1589.5,4 -4,4"/>
<!-- data.aws_availability_zones.available_zones -->
<g id="node1" class="node">
<title>data.aws_availability_zones.available_zones</title>
<polygon fill="none" stroke="black" points="438.5,-167 154.75,-167 154.75,-131 438.5,-131 438.5,-167"/>
<text text-anchor="middle" x="296.62" y="-143.2" font-family="sans-serif" font-size="14.00">data.aws_availability_zones.available_zones</text>
</g>
<!-- aws_eip.eip -->
<g id="node2" class="node">
<title>aws_eip.eip</title>
<polygon fill="none" stroke="black" points="614.25,-36 527,-36 527,0 614.25,0 614.25,-36"/>
<text text-anchor="middle" x="570.62" y="-12.2" font-family="sans-serif" font-size="14.00">aws_eip.eip</text>
</g>
<!-- aws_internet_gateway.igw -->
<g id="node3" class="node">
<title>aws_internet_gateway.igw</title>
<polygon fill="none" stroke="black" points="383.38,-75 209.88,-75 209.88,-39 383.38,-39 383.38,-75"/>
<text text-anchor="middle" x="296.62" y="-51.2" font-family="sans-serif" font-size="14.00">aws_internet_gateway.igw</text>
</g>
<!-- aws_eip.eip&#45;&gt;aws_internet_gateway.igw -->
<g id="edge1" class="edge">
<title>aws_eip.eip&#45;&gt;aws_internet_gateway.igw</title>
<path fill="none" stroke="black" d="M526.53,-24.18C491.31,-29.23 440.18,-36.56 395.17,-43.01"/>
<polygon fill="black" stroke="black" points="394.77,-39.53 385.37,-44.42 395.77,-46.46 394.77,-39.53"/>
</g>
<!-- aws_vpc.MyVPC -->
<g id="node11" class="node">
<title>aws_vpc.MyVPC</title>
<polygon fill="none" stroke="black" points="118.75,-121 0,-121 0,-85 118.75,-85 118.75,-121"/>
<text text-anchor="middle" x="59.38" y="-97.2" font-family="sans-serif" font-size="14.00">aws_vpc.MyVPC</text>
</g>
<!-- aws_internet_gateway.igw&#45;&gt;aws_vpc.MyVPC -->
<g id="edge2" class="edge">
<title>aws_internet_gateway.igw&#45;&gt;aws_vpc.MyVPC</title>
<path fill="none" stroke="black" d="M209.7,-73.8C183.52,-78.92 155.07,-84.48 130.1,-89.37"/>
<polygon fill="black" stroke="black" points="129.52,-85.91 120.38,-91.27 130.87,-92.78 129.52,-85.91"/>
</g>
<!-- aws_nat_gateway.ngw -->
<g id="node4" class="node">
<title>aws_nat_gateway.ngw</title>
<polygon fill="none" stroke="black" points="930.62,-90 778.88,-90 778.88,-54 930.62,-54 930.62,-90"/>
<text text-anchor="middle" x="854.75" y="-66.2" font-family="sans-serif" font-size="14.00">aws_nat_gateway.ngw</text>
</g>
<!-- aws_nat_gateway.ngw&#45;&gt;aws_eip.eip -->
<g id="edge3" class="edge">
<title>aws_nat_gateway.ngw&#45;&gt;aws_eip.eip</title>
<path fill="none" stroke="black" d="M778.52,-57.6C730.42,-48.39 669.15,-36.67 625.81,-28.37"/>
<polygon fill="black" stroke="black" points="626.61,-24.96 616.13,-26.52 625.29,-31.84 626.61,-24.96"/>
</g>
<!-- aws_subnet.public_subnets -->
<g id="node10" class="node">
<title>aws_subnet.public_subnets</title>
<polygon fill="none" stroke="black" points="661.5,-144 479.75,-144 479.75,-108 661.5,-108 661.5,-144"/>
<text text-anchor="middle" x="570.62" y="-120.2" font-family="sans-serif" font-size="14.00">aws_subnet.public_subnets</text>
</g>
<!-- aws_nat_gateway.ngw&#45;&gt;aws_subnet.public_subnets -->
<g id="edge4" class="edge">
<title>aws_nat_gateway.ngw&#45;&gt;aws_subnet.public_subnets</title>
<path fill="none" stroke="black" d="M778.41,-85.07C754.22,-89.38 727.33,-94.27 702.75,-99 692.42,-100.99 681.64,-103.12 670.89,-105.27"/>
<polygon fill="black" stroke="black" points="670.32,-101.82 661.21,-107.23 671.71,-108.68 670.32,-101.82"/>
</g>
<!-- aws_route_table.private_route -->
<g id="node5" class="node">
<title>aws_route_table.private_route</title>
<polygon fill="none" stroke="black" points="1240.25,-119 1042.75,-119 1042.75,-83 1240.25,-83 1240.25,-119"/>
<text text-anchor="middle" x="1141.5" y="-95.2" font-family="sans-serif" font-size="14.00">aws_route_table.private_route</text>
</g>
<!-- aws_route_table.private_route&#45;&gt;aws_nat_gateway.ngw -->
<g id="edge5" class="edge">
<title>aws_route_table.private_route&#45;&gt;aws_nat_gateway.ngw</title>
<path fill="none" stroke="black" d="M1042.51,-91.02C1009.98,-87.71 974.02,-84.05 942.41,-80.83"/>
<polygon fill="black" stroke="black" points="942.79,-77.35 932.49,-79.82 942.08,-84.31 942.79,-77.35"/>
</g>
<!-- aws_route_table.public_route -->
<g id="node6" class="node">
<title>aws_route_table.public_route</title>
<polygon fill="none" stroke="black" points="666.75,-90 474.5,-90 474.5,-54 666.75,-54 666.75,-90"/>
<text text-anchor="middle" x="570.62" y="-66.2" font-family="sans-serif" font-size="14.00">aws_route_table.public_route</text>
</g>
<!-- aws_route_table.public_route&#45;&gt;aws_internet_gateway.igw -->
<g id="edge6" class="edge">
<title>aws_route_table.public_route&#45;&gt;aws_internet_gateway.igw</title>
<path fill="none" stroke="black" d="M474.11,-66.73C448.51,-65.32 420.8,-63.79 395.09,-62.38"/>
<polygon fill="black" stroke="black" points="395.52,-58.89 385.34,-61.84 395.13,-65.88 395.52,-58.89"/>
</g>
<!-- aws_route_table_association.private_association -->
<g id="node7" class="node">
<title>aws_route_table_association.private_association</title>
<polygon fill="none" stroke="black" points="1585.5,-142 1276.25,-142 1276.25,-106 1585.5,-106 1585.5,-142"/>
<text text-anchor="middle" x="1430.88" y="-118.2" font-family="sans-serif" font-size="14.00">aws_route_table_association.private_association</text>
</g>
<!-- aws_route_table_association.private_association&#45;&gt;aws_route_table.private_route -->
<g id="edge7" class="edge">
<title>aws_route_table_association.private_association&#45;&gt;aws_route_table.private_route</title>
<path fill="none" stroke="black" d="M1276.09,-111.69C1268.02,-111.05 1260,-110.4 1252.11,-109.77"/>
<polygon fill="black" stroke="black" points="1252.44,-106.29 1242.19,-108.98 1251.88,-113.27 1252.44,-106.29"/>
</g>
<!-- aws_subnet.private_subnets -->
<g id="node9" class="node">
<title>aws_subnet.private_subnets</title>
<polygon fill="none" stroke="black" points="664.12,-198 477.12,-198 477.12,-162 664.12,-162 664.12,-198"/>
<text text-anchor="middle" x="570.62" y="-174.2" font-family="sans-serif" font-size="14.00">aws_subnet.private_subnets</text>
</g>
<!-- aws_route_table_association.private_association&#45;&gt;aws_subnet.private_subnets -->
<g id="edge8" class="edge">
<title>aws_route_table_association.private_association&#45;&gt;aws_subnet.private_subnets</title>
<path fill="none" stroke="black" d="M1276.14,-134.78C1195.87,-140.34 1096.02,-147.17 1006.75,-153 893.69,-160.38 764.08,-168.36 675.93,-173.72"/>
<polygon fill="black" stroke="black" points="675.86,-170.22 666.09,-174.31 676.28,-177.2 675.86,-170.22"/>
</g>
<!-- aws_route_table_association.public_association -->
<g id="node8" class="node">
<title>aws_route_table_association.public_association</title>
<polygon fill="none" stroke="black" points="1006.75,-144 702.75,-144 702.75,-108 1006.75,-108 1006.75,-144"/>
<text text-anchor="middle" x="854.75" y="-120.2" font-family="sans-serif" font-size="14.00">aws_route_table_association.public_association</text>
</g>
<!-- aws_route_table_association.public_association&#45;&gt;aws_route_table.public_route -->
<g id="edge9" class="edge">
<title>aws_route_table_association.public_association&#45;&gt;aws_route_table.public_route</title>
<path fill="none" stroke="black" d="M748.49,-107.54C733.13,-104.74 717.53,-101.84 702.75,-99 692.42,-97.01 681.64,-94.88 670.89,-92.73"/>
<polygon fill="black" stroke="black" points="671.71,-89.32 661.21,-90.77 670.32,-96.18 671.71,-89.32"/>
</g>
<!-- aws_route_table_association.public_association&#45;&gt;aws_subnet.public_subnets -->
<g id="edge10" class="edge">
<title>aws_route_table_association.public_association&#45;&gt;aws_subnet.public_subnets</title>
<path fill="none" stroke="black" d="M702.36,-126C692.51,-126 682.73,-126 673.21,-126"/>
<polygon fill="black" stroke="black" points="673.25,-122.5 663.25,-126 673.25,-129.5 673.25,-122.5"/>
</g>
<!-- aws_subnet.private_subnets&#45;&gt;data.aws_availability_zones.available_zones -->
<g id="edge11" class="edge">
<title>aws_subnet.private_subnets&#45;&gt;data.aws_availability_zones.available_zones</title>
<path fill="none" stroke="black" d="M476.78,-169.42C468.03,-168.42 459.01,-167.39 449.89,-166.35"/>
<polygon fill="black" stroke="black" points="450.56,-162.91 440.23,-165.25 449.77,-169.86 450.56,-162.91"/>
</g>
<!-- aws_subnet.private_subnets&#45;&gt;aws_vpc.MyVPC -->
<g id="edge12" class="edge">
<title>aws_subnet.private_subnets&#45;&gt;aws_vpc.MyVPC</title>
<path fill="none" stroke="black" d="M476.93,-195.61C390.91,-206.31 260.57,-212.72 154.75,-176 127.67,-166.6 102.3,-146.04 84.69,-129.13"/>
<polygon fill="black" stroke="black" points="87.33,-126.82 77.78,-122.25 82.4,-131.78 87.33,-126.82"/>
</g>
<!-- aws_subnet.public_subnets&#45;&gt;data.aws_availability_zones.available_zones -->
<g id="edge13" class="edge">
<title>aws_subnet.public_subnets&#45;&gt;data.aws_availability_zones.available_zones</title>
<path fill="none" stroke="black" d="M479.43,-133.63C469.88,-134.43 459.99,-135.27 449.98,-136.12"/>
<polygon fill="black" stroke="black" points="449.81,-132.62 440.14,-136.95 450.4,-139.59 449.81,-132.62"/>
</g>
<!-- aws_subnet.public_subnets&#45;&gt;aws_vpc.MyVPC -->
<g id="edge14" class="edge">
<title>aws_subnet.public_subnets&#45;&gt;aws_vpc.MyVPC</title>
<path fill="none" stroke="black" d="M479.46,-121.93C379.74,-117.42 221.19,-110.26 130.39,-106.16"/>
<polygon fill="black" stroke="black" points="130.78,-102.68 120.63,-105.72 130.46,-109.67 130.78,-102.68"/>
</g>
</g>
</svg>
